<svg width="43" height="43" viewBox="0 0 43 43" fill="none" xmlns="http://www.w3.org/2000/svg">
<rect x="21.625" y="0.748474" width="29.1703" height="29.5239" rx="5" transform="rotate(45 21.625 0.748474)" fill="#D45C2C"/>
<path d="M23.5482 8.95106C23.8462 8.02697 25.1536 8.02697 25.4517 8.95106L26.3978 11.8848C26.5313 12.2986 26.9169 12.5788 27.3517 12.5779L30.4343 12.5711C31.4052 12.569 31.8092 13.8124 31.0225 14.3814L28.5247 16.1878C28.1723 16.4426 28.025 16.896 28.1603 17.3092L29.1193 20.2388C29.4213 21.1616 28.3636 21.93 27.5793 21.3576L25.0895 19.5403C24.7383 19.2839 24.2616 19.2839 23.9104 19.5403L21.4205 21.3576C20.6363 21.93 19.5785 21.1616 19.8806 20.2388L20.8396 17.3092C20.9748 16.896 20.8275 16.4426 20.4752 16.1878L17.9774 14.3814C17.1907 13.8124 17.5947 12.569 18.5656 12.5711L21.6481 12.5779C22.083 12.5788 22.4686 12.2986 22.6021 11.8848L23.5482 8.95106Z" fill="white"/>
</svg>
